<svg xmlns="http://www.w3.org/2000/svg" viewBox="0 0 189.37 119.76"><g id="Layer_2" data-name="Layer 2"><g id="Layer_1-2" data-name="Layer 1"><path d="M42.82,32.4c2.56-.41,2.7-.9,2.7-6.93v-18c0-6-.27-6.52-2.7-7V0c1,0,3.19.09,5,.09s5,0,6.16,0C69.19,0,74.09,8.46,74.09,16.65c0,8.77-5.67,16.24-17.91,16.24-1.66,0-5.62-.13-8.37-.13-1.57,0-4,0-5,.09Zm7.38-1.22a29,29,0,0,0,5.49.5c8.05,0,13.09-4.14,13.09-14.94,0-13-7.33-15.48-14.22-15.48a17.5,17.5,0,0,0-4.36.45Z"/><path d="M89.57,32.85c-1-.05-2.38-.09-4-.09s-3.06,0-4,.09V32.4c1.35-.27,1.94-.5,1.94-4.1V16.06c0-2.2,0-2.88-1.4-3.24v-.45a14.68,14.68,0,0,0,5.63-1.21V14c1.62-1.53,3.1-2.88,5.17-2.88,2.25,0,3.51,1.53,3.51,5H92.18c0-1.85-.72-2.48-1.8-2.48a3.66,3.66,0,0,0-2.74,1.58v13c0,3.6.58,3.83,1.93,4.1Z"/><path d="M121.21,30.91a4.58,4.58,0,0,1-4,2.16,2.37,2.37,0,0,1-2.66-2.34,9.8,9.8,0,0,1-6.43,2.48c-3.65,0-6.17-2.07-6.17-5,0-3.42,3.38-5.76,7.65-5.76a9.42,9.42,0,0,1,4.77,1.17V17.1c0-3.47-1.12-4.91-3.42-4.91-2.56,0-4.23,1.8-4.27,5.67h-3.87c.72-4.81,4.32-6.7,8.59-6.7s7.2,2,7.2,7.78v9.45c0,2,.32,2.57,1.22,2.57a1.64,1.64,0,0,0,1.12-.45Zm-6.8-1.08V24.57a6.24,6.24,0,0,0-3.6-1,3.86,3.86,0,0,0-4.23,4.14c0,2.43,1.4,3.92,3.69,3.92A6.08,6.08,0,0,0,114.41,29.83Z"/><path d="M146.77,15.79c-.59-1.17-1.31-1.71-2-1.71a1.72,1.72,0,0,0-1,.36,6.81,6.81,0,0,1,1.44,4.28c0,4.63-4.14,7.24-8.73,7.24a15,15,0,0,1-1.57-.09A2.44,2.44,0,0,0,133,28.35c0,2.11,2,2.34,5.45,2.7,4.59.49,8.5,1.84,8.5,5.53,0,3.33-3.15,6.3-10.21,6.3-5.58,0-10.31-1.84-10.31-5.76,0-2,1.22-4.14,5.4-5.4-1.71-.45-3.06-1.35-3.06-3.06,0-2,1.85-3,3.65-3.37a6.89,6.89,0,0,1-4.86-6.62c0-4.23,3.69-7.51,8.73-7.51A9.68,9.68,0,0,1,143,13.63c.94-1.12,2.11-2.07,3.28-2.07a3.31,3.31,0,0,1,2.21,1.08ZM131.06,36.9c0,3.55,2.48,5.13,5.63,5.13s5.4-1.44,5.4-4.91c0-4.27-3.56-4.77-7-4.9A4.28,4.28,0,0,0,131.06,36.9Zm9.18-18.14c0-4.18-1-6.75-3.91-6.75s-3.78,2.34-3.78,6.62,1.08,6.48,3.82,6.48S140.24,23,140.24,18.76Z"/><path d="M.54,107.25a8,8,0,0,0-.06.8c0,2.63,2.5,4,5,4a4.12,4.12,0,0,0,4.36-4.32c0-6.4-9.6-6.24-9.6-13.22a5.56,5.56,0,0,1,5.92-5.73c1.85,0,3,.51,4.25.51a3.44,3.44,0,0,0,.55,0,18.85,18.85,0,0,0-.1,2.12c0,.47,0,1.27,0,1.75h-.19A4.18,4.18,0,0,0,6.24,89.5c-2,0-3.9,1.08-3.9,3.61,0,6.11,9.53,6,9.53,13.28a6.29,6.29,0,0,1-6.65,6.5c-2.15,0-3.08-.61-4.61-.61a2.58,2.58,0,0,0-.48,0,6.55,6.55,0,0,0,0-.83c0-.74-.16-1.41-.16-2.21a5.37,5.37,0,0,1,.38-2Z"/><path d="M22,110.36a3.77,3.77,0,0,1-3.68,2.53c-1.69,0-3.29-.36-3.29-3.81V99.32c0-1.35-.26-1.54-1.57-1.76V97.4c2.05,0,3.39-1.92,3.9-4.23h.19a26.43,26.43,0,0,0-.48,4.2h2.63c1.53,0,2.05,0,2.53-.8l.19.19A9.67,9.67,0,0,0,21.06,99H20.8a1.22,1.22,0,0,0,.06-.35c0-.55-.44-.67-1.53-.67H17v11c0,2.21.64,3,2.28,3a2.4,2.4,0,0,0,2.49-1.73Z"/><path d="M27.9,112.63c-.7,0-1.21-.06-2.4-.06s-1.69,0-2.4.06v-.16c1-.19,1.38-.35,1.38-2.91V99.8c0-1.15,0-1.47-1-1.73v-.16a9.57,9.57,0,0,0,3-.7v1.47a5,5,0,0,1,3.2-1.47c1.66,0,2.05,1.18,2.05,2.65H29.73c0-1.18-.45-1.66-1.19-1.66-.51,0-1.15.22-2,1.21v10.15c0,2.56.41,2.72,1.37,2.91Z"/><path d="M45.76,110.39a6.53,6.53,0,0,1-5.31,2.5c-5.15,0-7.62-3.91-7.62-7.81,0-4.39,2.88-7.87,6.82-7.87a5.65,5.65,0,0,1,5.89,5.66h-10c0,.32-.07.7-.07,1.09,0,5.09,2.66,7.87,6.31,7.87a5.27,5.27,0,0,0,3.9-1.57Zm-2.85-8.16c-.13-2.91-1.34-4.61-3.33-4.61s-3.55,1.83-4,4.61Z"/><path d="M62.27,112.63c-.7,0-1.22-.06-2.4-.06s-1.7,0-2.4.06v-.16c1-.19,1.38-.35,1.38-2.91v-7c0-4-2-4.73-3.91-4.73a7.13,7.13,0,0,0-3.87,1.31v10.4c0,2.56.42,2.72,1.38,2.91v.16c-.71,0-1.22-.06-2.4-.06s-1.7,0-2.4.06v-.16c1-.19,1.37-.35,1.37-2.91V99.8c0-1.15,0-1.47-1-1.73v-.16a9.57,9.57,0,0,0,3-.7v1.28a8.83,8.83,0,0,1,4.67-1.28c2.15,0,5.15.64,5.15,5.21v7.14c0,2.56.42,2.72,1.38,2.91Z"/><path d="M76.64,100c-.19-.74-.51-1-.93-1a1.53,1.53,0,0,0-1,.45,5,5,0,0,1,.93,3c0,3.2-2.63,5.09-5.7,5.09-.41,0-.77,0-1.12-.06a1.8,1.8,0,0,0-1.47,1.76c0,1.76,2,1.66,4.67,2,3.87.41,5.15,2.24,5.15,4.09,0,2.24-2.33,4.51-6.84,4.51-3.36,0-6.72-1.37-6.72-4.06,0-1.6,1.12-3.1,3.84-4-1.28-.25-2.21-.73-2.21-2.11s1.31-2.11,2.43-2.43a5,5,0,0,1-3.52-4.83c0-2.56,1.92-5.15,5.73-5.15a6.1,6.1,0,0,1,4.54,1.88c.55-.6,1.51-1.5,2.34-1.5a1.1,1.1,0,0,1,1,.54Zm-10.5,15.52c0,2.62,1.92,3.81,4.29,3.81,2.08,0,4.13-1,4.13-3.68,0-3.52-3.2-3.52-5.82-3.78A3.38,3.38,0,0,0,66.14,115.51Zm6.88-13c0-3.07-1-4.9-3.23-4.9-2,0-2.94,1.67-2.94,4.61,0,3.46,1,4.86,3,4.86S73,105.56,73,102.52Z"/><path d="M93.12,112.63c-.67,0-1.89-.06-3-.06s-2.08,0-2.78.06v-.16c1.18-.19,1.6-.35,1.6-2.91V92.38c0-2.57-.51-2.69-1.92-2.92V89.3c.64,0,1.79.07,4.09.07,4.9,0,7.46,0,8.9-.07,0,.23,0,.83,0,1.35a14.25,14.25,0,0,1-.19,2.62h-.16c0-2.85-1-2.94-5.7-2.94a9.46,9.46,0,0,0-2.68.19v9.37c5.85,0,6.27,0,6.59-2.84h.16c0,1-.07,2-.07,3.36,0,1.69,0,1.92.07,3h-.16c-.32-2.49-.77-2.56-6.59-2.56v8.71c0,2.56.54,2.72,1.79,2.91Z"/><path d="M101.73,105.08a7.7,7.7,0,1,1,15.39,0,7.37,7.37,0,0,1-7.59,7.68C104.67,112.76,101.73,109.85,101.73,105.08Zm12.73-.23c0-3.93-1.09-7.23-5.21-7.23s-4.87,4.42-4.87,7.75c0,3.58.93,7,5,7C113.73,112.34,114.46,108.47,114.46,104.85Z"/><path d="M124,112.63c-.71,0-1.22-.06-2.4-.06s-1.7,0-2.4.06v-.16c1-.19,1.38-.35,1.38-2.91V99.8c0-1.15,0-1.47-1-1.73v-.16a9.57,9.57,0,0,0,3-.7v1.47a5,5,0,0,1,3.2-1.47c1.67,0,2.05,1.18,2.05,2.65h-2.05c0-1.18-.44-1.66-1.18-1.66-.51,0-1.15.22-2,1.21v10.15c0,2.56.42,2.72,1.38,2.91Z"/><path d="M153.05,112.63c-.7,0-1.21-.06-2.4-.06s-1.69,0-2.4.06v-.16c1-.19,1.38-.35,1.38-2.91v-6.5c0-4.38-1.89-5.21-3.52-5.21a7.87,7.87,0,0,0-4.61,1.69,7.35,7.35,0,0,1,.58,3.2v6.82c0,2.56.41,2.72,1.37,2.91v.16c-.7,0-1.21-.06-2.4-.06s-1.69,0-2.4.06v-.16c1-.19,1.38-.35,1.38-2.91V102.9c0-4.38-1.89-5.05-3.52-5.05a7,7,0,0,0-3.87,1.24v10.47c0,2.56.41,2.72,1.37,2.91v.16c-.7,0-1.21-.06-2.4-.06s-1.69,0-2.4.06v-.16c1-.19,1.38-.35,1.38-2.91V99.8c0-1.15,0-1.47-1-1.73v-.16a9.57,9.57,0,0,0,3-.7v1.28a8.83,8.83,0,0,1,4.67-1.28,4.18,4.18,0,0,1,4,1.92,9.7,9.7,0,0,1,5.63-1.92c2.69,0,4.77,1.34,4.77,5.69v6.66c0,2.56.41,2.72,1.37,2.91Z"/><path d="M167.77,110.39a6.53,6.53,0,0,1-5.31,2.5c-5.15,0-7.61-3.91-7.61-7.81,0-4.39,2.88-7.87,6.81-7.87a5.65,5.65,0,0,1,5.89,5.66H157.5c0,.32-.06.7-.06,1.09,0,5.09,2.65,7.87,6.3,7.87a5.29,5.29,0,0,0,3.91-1.57Zm-2.84-8.16c-.13-2.91-1.35-4.61-3.33-4.61s-3.55,1.83-4,4.61Z"/><path d="M182.62,110.39a6.53,6.53,0,0,1-5.31,2.5c-5.15,0-7.62-3.91-7.62-7.81,0-4.39,2.88-7.87,6.82-7.87a5.65,5.65,0,0,1,5.89,5.66H172.35c0,.32-.06.7-.06,1.09,0,5.09,2.65,7.87,6.3,7.87a5.27,5.27,0,0,0,3.9-1.57Zm-2.85-8.16c-.12-2.91-1.34-4.61-3.32-4.61s-3.56,1.83-4,4.61Z"/><path d="M189.37,112.63c-.7,0-1.21-.06-2.4-.06s-1.69,0-2.4.06v-.16c1-.19,1.38-.35,1.38-2.91V90.77c0-1.15,0-1.47-1-1.72v-.16a9.58,9.58,0,0,0,3-.71v21.38c0,2.56.41,2.72,1.37,2.91Z"/></g></g></svg>