<svg xmlns="http://www.w3.org/2000/svg" viewBox="0 0 107.67 491.75"><g id="Layer_2" data-name="Layer 2"><g id="Layer_1-2" data-name="Layer 1"><path d="M15.48,124.53c6.36-1,9.8-1.9,9.8-15.66V16.51c0-13.76-2.92-14.62-9.46-15.65V0c3.79.17,9.12.34,13.76.34C39,.34,43.69,0,49.88,0,73.79,0,83.93,14.1,83.93,28.21c0,11.87-6.53,22.7-23.73,27.17,22.36,2.93,33.19,19.44,33.19,35.78,0,19.09-12.21,34.4-35.43,34.4-9.63,0-17-.52-26.31-.52-6.37,0-12.39.17-16.17.35ZM38,55.56c18.58,0,33-6,33-26.32C71,12.73,60,3.61,47,3.61A27.7,27.7,0,0,0,38,5Zm0,4.12v59.86a71.83,71.83,0,0,0,13.07,1.37c17,0,28.38-8.25,28.38-30.27,0-18.4-10-31-37.15-31Z"/><path d="M92.1,286c-.17,14.45-1,15.14-1,22.71-16-.52-19.43-.52-35.43-.52-13.07,0-31,.17-34.57.35v-.86c8.26-1.38,9.8-4,9.8-15.66V199.69c0-13.76-2.23-14.62-8.6-15.65v-.86c3.79.17,8.6.34,15,.34,5.85,0,11.35-.17,15-.34V184c-6.36,1-8.6,1.89-8.6,15.65V302c1.89.69,6.54,1,14.62,1,26.83,0,30.44,0,33-17Z"/><path d="M68.46,491.75c-3.62-.18-9.12-.35-15-.35-6.36,0-11.18.17-15,.35v-.86c6.36-1.21,8.6-1.9,8.6-15.66v-25.8L12.56,380.12C8.43,372,6.71,368.77,0,367.22v-.86c3.61.17,11.35.34,17.2.34,6.36,0,11.52-.17,15.31-.34v.86c-5.51.69-7.74,2.41-7.74,5.5,0,2.24.86,4.82,3.27,9.46l28.89,58.65,21.33-41.45c9.11-17.88,10.83-20.64,10.83-26,0-3.44-1.89-5.33-7-6.19v-.86c3.79.17,6.19.34,12.56.34,5.85,0,9.46-.17,13.07-.34v.86c-8.08,1.72-7.22,2.41-24.08,34.4L59.85,446.85v28.38c0,13.76,2.24,14.45,8.61,15.66Z"/></g></g></svg>